<svg width="30" height="30" viewBox="0 0 30 30" fill="none" xmlns="http://www.w3.org/2000/svg">
<g clip-path="url(#clip0_289_6995)">
<path d="M2.63101 4.25879C2.34894 3.67573 2.59286 2.97442 3.17593 2.69241C3.36624 2.60036 3.56892 2.56526 3.76573 2.57874C3.95136 2.16606 4.27725 1.81379 4.71641 1.60133C5.70911 1.12104 6.90319 1.53647 7.38348 2.52917C7.49956 2.76911 7.5629 3.02083 7.57877 3.27131C8.02186 3.25655 8.45317 3.49795 8.65872 3.9227C8.9368 4.49745 8.69633 5.18873 8.12153 5.46682C7.59958 5.71936 6.98247 5.54317 6.66512 5.07834C6.59844 5.12112 6.52883 5.16073 6.45571 5.19618C5.67091 5.57586 4.76054 5.39534 4.17618 4.81268C3.59745 5.07893 2.90974 4.83477 2.63101 4.25879Z" fill="url(#paint0_linear_289_6995)"/>
<path d="M2.92639 2.12331C3.46768 2.12331 3.90648 1.68451 3.90648 1.14321C3.90648 0.601921 3.46768 0.163116 2.92639 0.163116C2.38509 0.163116 1.94629 0.601921 1.94629 1.14321C1.94629 1.68451 2.38509 2.12331 2.92639 2.12331Z" fill="url(#paint1_linear_289_6995)"/>
<path d="M8.7498 10.0273H6.38596C6.05145 10.0273 5.78027 9.75612 5.78027 9.4216V5.65115C5.78027 5.31664 6.05145 5.04547 6.38596 5.04547H8.7498C9.08432 5.04547 9.35549 5.31664 9.35549 5.65115V9.4216C9.35555 9.75612 9.08437 10.0273 8.7498 10.0273Z" fill="url(#paint2_linear_289_6995)"/>
<path d="M8.00025 20.778H0.941406V29.8369H8.00025V20.778Z" fill="url(#paint3_linear_289_6995)"/>
<path d="M8.29409 22.7191H0.956985C0.65634 22.7191 0.441125 22.4288 0.528372 22.141L1.25646 19.7427C1.31376 19.5539 1.48779 19.425 1.68507 19.425H8.29415V22.7191H8.29409Z" fill="url(#paint4_linear_289_6995)"/>
<path d="M29.0588 20.778H22V29.8369H29.0588V20.778Z" fill="url(#paint5_linear_289_6995)"/>
<path d="M29.0588 27.4634L24.3162 22.7208H22V29.8367H29.0588V27.4634Z" fill="url(#paint6_linear_289_6995)"/>
<path d="M21.7051 22.7191H29.0422C29.3428 22.7191 29.558 22.4288 29.4708 22.141L28.7427 19.7427C28.6854 19.5539 28.5114 19.425 28.3141 19.425H21.7051V22.7191Z" fill="url(#paint7_linear_289_6995)"/>
<path d="M24.3202 11.0943V29.8366H5.68262V11.0943L15.0002 1.95896L24.3202 11.0943Z" fill="url(#paint8_linear_289_6995)"/>
<path d="M5.68262 11.0943V12.168L23.3511 29.8366H24.3202V11.0943L15.0002 1.95896L5.68262 11.0943Z" fill="url(#paint9_linear_289_6995)"/>
<path d="M24.3202 16.7585V29.8367H18.4361L5.68262 17.0831V16.7585H24.3202Z" fill="url(#paint10_linear_289_6995)"/>
<path d="M21.4403 29.8367H12.3252L7.31465 24.8261C7.09404 24.6831 6.94727 24.4349 6.94727 24.1534V20.1207C6.94727 19.6789 7.30697 19.3192 7.74877 19.3192H10.6561C10.9383 19.3192 11.1864 19.4661 11.3294 19.6866L11.3076 19.7039L21.4403 29.8367Z" fill="url(#paint11_linear_289_6995)"/>
<path d="M10.6561 24.4851H7.74893C7.56559 24.4851 7.41699 24.3365 7.41699 24.1532V20.1211C7.41699 19.9377 7.56564 19.7891 7.74893 19.7891H10.6561C10.8394 19.7891 10.988 19.9378 10.988 20.1211V24.1532C10.988 24.3365 10.8394 24.4851 10.6561 24.4851Z" fill="#503837"/>
<path d="M10.6562 24.955H7.74906C7.30697 24.955 6.94727 24.5953 6.94727 24.1532V20.1211C6.94727 19.679 7.30697 19.3193 7.74906 19.3193H10.6562C11.0983 19.3193 11.458 19.679 11.458 20.1211V24.1532C11.458 24.5953 11.0983 24.955 10.6562 24.955ZM7.88705 24.0152H10.5183V20.2589H7.88705V24.0152Z" fill="white"/>
<path d="M24.3209 20.9826V29.8367H24.0349L19.0243 24.8261C18.8031 24.6831 18.6562 24.4349 18.6562 24.1534V20.1207C18.6562 19.6789 19.016 19.3192 19.4584 19.3192H22.3651C22.6472 19.3192 22.8954 19.4661 23.0384 19.6866L23.05 19.6956L23.0422 19.704L24.3209 20.9826Z" fill="url(#paint12_linear_289_6995)"/>
<path d="M22.365 24.4851H19.4579C19.2746 24.4851 19.126 24.3365 19.126 24.1532V20.1211C19.126 19.9377 19.2746 19.7891 19.4579 19.7891H22.365C22.5484 19.7891 22.697 19.9378 22.697 20.1211V24.1532C22.697 24.3365 22.5484 24.4851 22.365 24.4851Z" fill="#503837"/>
<path d="M22.3652 24.955H19.458C19.016 24.955 18.6562 24.5953 18.6562 24.1532V20.1211C18.6562 19.679 19.016 19.3193 19.458 19.3193H22.3652C22.8073 19.3193 23.167 19.679 23.167 20.1211V24.1532C23.167 24.5953 22.8073 24.955 22.3652 24.955ZM19.5959 24.0152H22.2271V20.2589H19.5959V24.0152Z" fill="white"/>
<path d="M13.0586 29.8365V19.6547C13.0586 19.2056 13.4226 18.8416 13.8718 18.8416H16.1297C16.5788 18.8416 16.9429 19.2056 16.9429 19.6547V29.8365H13.0586Z" fill="#816965"/>
<path d="M17.4242 29.8365H16.4624V19.932C16.4624 19.5968 16.1881 19.3225 15.8529 19.3225H14.1494C13.8128 19.3225 13.5399 19.5954 13.5399 19.932V29.8365H12.5781V19.2959C12.5781 18.7794 12.9968 18.3607 13.5133 18.3607H16.489C17.0055 18.3607 17.4242 18.7794 17.4242 19.2959V29.8365H17.4242Z" fill="#503837"/>
<path d="M14.3125 23.1018C14.5547 23.1018 14.7511 22.9055 14.7511 22.6633C14.7511 22.4211 14.5547 22.2248 14.3125 22.2248C14.0704 22.2248 13.874 22.4211 13.874 22.6633C13.874 22.9055 14.0704 23.1018 14.3125 23.1018Z" fill="white"/>
<path d="M24.3205 27.2704H5.68164V29.8363H24.3205V27.2704Z" fill="#654E48"/>
<path d="M5.47769 28.8338C5.47769 29.1879 5.41072 29.5258 5.28838 29.8364H0.189316C0.0669726 29.5258 0 29.1879 0 28.8338C0 28.489 0.0635742 28.1593 0.18 27.8556C0.573691 26.8256 1.57096 26.0949 2.73891 26.0949C3.90685 26.0949 4.90406 26.8257 5.29781 27.8556C5.41418 28.1594 5.47769 28.489 5.47769 28.8338Z" fill="url(#paint13_linear_289_6995)"/>
<path d="M7.24404 29.1092C7.24404 29.3661 7.19547 29.6112 7.10675 29.8365H3.40779C3.31908 29.6112 3.27051 29.3661 3.27051 29.1092C3.27051 28.859 3.31662 28.6199 3.40111 28.3996C3.6867 27.6524 4.4101 27.1224 5.25736 27.1224C6.10463 27.1224 6.82802 27.6524 7.11361 28.3996C7.19793 28.6199 7.24404 28.859 7.24404 29.1092Z" fill="url(#paint14_linear_289_6995)"/>
<path d="M30.0006 28.6677C30.0006 29.0805 29.9224 29.4744 29.7799 29.8365H23.8359C23.6934 29.4745 23.6152 29.0805 23.6152 28.6677C23.6152 28.2657 23.6894 27.8816 23.8251 27.5275C24.284 26.3268 25.4465 25.475 26.8079 25.475C28.1693 25.475 29.3318 26.3268 29.7907 27.5275C29.9264 27.8816 30.0006 28.2657 30.0006 28.6677Z" fill="url(#paint15_linear_289_6995)"/>
<path d="M24.3198 13.7754V23.7089L12.331 11.7195C12.0957 11.5778 11.9375 11.3207 11.9375 11.0266V8.77427C11.9375 7.08601 13.3116 5.71251 14.9998 5.71251C15.914 5.71251 16.7357 6.11604 17.2975 6.75308L24.3198 13.7754Z" fill="url(#paint16_linear_289_6995)"/>
<path d="M22.9545 12.809H7.28781C6.91422 12.809 6.61035 13.1129 6.61035 13.4864V16.4942H7.08092V13.4864C7.08092 13.3723 7.17373 13.2795 7.28781 13.2795H8.22496V16.4941H8.69553V13.2795H10.0935V16.4941H10.5641V13.2795H11.9621V16.4941H12.4326V13.2795H13.8306V16.4941H14.3012V13.2795H15.6992V16.4941H16.1698V13.2795H17.5678V16.4941H18.0384V13.2795H19.4363V16.4941H19.9069V13.2795H21.3049V16.4941H21.7755V13.2795H22.9543C23.0683 13.2795 23.1611 13.3723 23.1611 13.4864V16.4942H23.6317V13.4864C23.632 13.1129 23.328 12.809 22.9545 12.809Z" fill="#654E48"/>
<path d="M24.7065 16.006V17.5148C24.7065 17.739 24.5248 17.9208 24.3005 17.9208H5.69994C5.4757 17.9208 5.29395 17.739 5.29395 17.5148V16.006C5.29395 15.7817 5.4757 15.6 5.69994 15.6H24.3005C24.5248 15.6 24.7065 15.7817 24.7065 16.006Z" fill="url(#paint17_linear_289_6995)"/>
<path d="M27.6568 12.7282L15.6226 0.690022C15.2796 0.347014 14.7234 0.347014 14.3804 0.690022L2.34312 12.7272C2.1187 12.9516 2.1187 13.3155 2.34312 13.5399L2.8561 14.0529C3.08052 14.2773 3.44433 14.2773 3.66874 14.0529L14.8379 2.88371C14.9282 2.79342 15.0746 2.79342 15.1649 2.88371L26.3311 14.0538C26.5555 14.2782 26.9193 14.2782 27.1437 14.0538L27.6567 13.5408C27.8812 13.3165 27.8812 12.9526 27.6568 12.7282Z" fill="url(#paint18_linear_289_6995)"/>
<path d="M15.6221 0.690004C15.4506 0.5185 15.2258 0.432777 15.001 0.432777V2.81608C15.0602 2.81608 15.1193 2.83869 15.1645 2.88381L26.3307 14.0539C26.5551 14.2783 26.9189 14.2783 27.1433 14.0539L27.6563 13.5409C27.8807 13.3165 27.8807 12.9527 27.6563 12.7283L15.6221 0.690004Z" fill="url(#paint19_linear_289_6995)"/>
<path d="M17.2511 11.3478H12.7473C12.5697 11.3478 12.4258 11.2039 12.4258 11.0263V8.7744C12.4258 7.35309 13.578 6.2009 14.9993 6.2009C16.4206 6.2009 17.5728 7.35309 17.5728 8.7744V11.0263C17.5727 11.2039 17.4286 11.3478 17.2511 11.3478Z" fill="#654E48"/>
<path d="M14.9995 5.71232C13.3111 5.71232 11.9375 7.08599 11.9375 8.77437V11.0262C11.9375 11.473 12.3009 11.8364 12.7477 11.8364H17.2515C17.6983 11.8364 18.0617 11.473 18.0617 11.0262V8.77437C18.0616 7.08593 16.688 5.71232 14.9995 5.71232ZM17.0675 8.5138H15.4882V6.74796C16.3204 6.94871 16.9592 7.64972 17.0675 8.5138ZM14.5109 6.74796V8.5138H12.9316C13.0399 7.64972 13.6787 6.94871 14.5109 6.74796ZM12.9147 9.49109H14.5109V10.8593H12.9147V9.49109ZM15.4882 10.8593V9.49109H17.0844V10.8593H15.4882Z" fill="white"/>
</g>
<defs>
<linearGradient id="paint0_linear_289_6995" x1="1.49762" y1="2.04555" x2="13.0392" y2="6.06087" gradientUnits="userSpaceOnUse">
<stop stop-color="#E2EDF2"/>
<stop offset="1" stop-color="#9FC7E2"/>
</linearGradient>
<linearGradient id="paint1_linear_289_6995" x1="2.60846" y1="1.03323" x2="4.30783" y2="1.62462" gradientUnits="userSpaceOnUse">
<stop stop-color="#E2EDF2"/>
<stop offset="1" stop-color="#9FC7E2"/>
</linearGradient>
<linearGradient id="paint2_linear_289_6995" x1="6.61016" y1="6.57975" x2="7.79602" y2="7.76502" gradientUnits="userSpaceOnUse">
<stop stop-color="#816965"/>
<stop offset="1" stop-color="#654E48"/>
</linearGradient>
<linearGradient id="paint3_linear_289_6995" x1="4.47071" y1="21.9259" x2="4.47071" y2="29.9704" gradientUnits="userSpaceOnUse">
<stop stop-color="#FFE7A5"/>
<stop offset="0.966" stop-color="#FFBF5C"/>
</linearGradient>
<linearGradient id="paint4_linear_289_6995" x1="4.40135" y1="19.8424" x2="4.40135" y2="22.7682" gradientUnits="userSpaceOnUse">
<stop stop-color="#FF5D00"/>
<stop offset="1" stop-color="#D54003"/>
</linearGradient>
<linearGradient id="paint5_linear_289_6995" x1="25.5288" y1="21.9259" x2="25.5288" y2="29.9704" gradientUnits="userSpaceOnUse">
<stop stop-color="#FFE7A5"/>
<stop offset="0.966" stop-color="#FFBF5C"/>
</linearGradient>
<linearGradient id="paint6_linear_289_6995" x1="25.3641" y1="28.2452" x2="18.0472" y2="21.7247" gradientUnits="userSpaceOnUse">
<stop stop-color="#FF5D00" stop-opacity="0"/>
<stop offset="1" stop-color="#D54003"/>
</linearGradient>
<linearGradient id="paint7_linear_289_6995" x1="25.5972" y1="19.8424" x2="25.5972" y2="22.7682" gradientUnits="userSpaceOnUse">
<stop stop-color="#FF5D00"/>
<stop offset="1" stop-color="#D54003"/>
</linearGradient>
<linearGradient id="paint8_linear_289_6995" x1="15.0011" y1="16.0913" x2="15.0011" y2="35.8256" gradientUnits="userSpaceOnUse">
<stop stop-color="#FFE7A5"/>
<stop offset="0.966" stop-color="#FFBF5C"/>
<stop offset="1" stop-color="#DB9E36"/>
</linearGradient>
<linearGradient id="paint9_linear_289_6995" x1="12.987" y1="9.6174" x2="7.59178" y2="4.22222" gradientUnits="userSpaceOnUse">
<stop stop-color="#FF5D00" stop-opacity="0"/>
<stop offset="1" stop-color="#D54003"/>
</linearGradient>
<linearGradient id="paint10_linear_289_6995" x1="15.7027" y1="21.2759" x2="13.5916" y2="8.17205" gradientUnits="userSpaceOnUse">
<stop stop-color="#FF5D00" stop-opacity="0"/>
<stop offset="1" stop-color="#D54003"/>
</linearGradient>
<linearGradient id="paint11_linear_289_6995" x1="12.8334" y1="25.7681" x2="4.42533" y2="17.3601" gradientUnits="userSpaceOnUse">
<stop stop-color="#FF5D00" stop-opacity="0"/>
<stop offset="1" stop-color="#D54003"/>
</linearGradient>
<linearGradient id="paint12_linear_289_6995" x1="23.1611" y1="24.3869" x2="17.7777" y2="19.0034" gradientUnits="userSpaceOnUse">
<stop stop-color="#FF5D00" stop-opacity="0"/>
<stop offset="1" stop-color="#D54003"/>
</linearGradient>
<linearGradient id="paint13_linear_289_6995" x1="1.19425" y1="27.1288" x2="4.57394" y2="30.5081" gradientUnits="userSpaceOnUse">
<stop stop-color="#9EB644"/>
<stop offset="1" stop-color="#738611"/>
</linearGradient>
<linearGradient id="paint14_linear_289_6995" x1="4.13668" y1="27.8721" x2="6.58839" y2="30.3238" gradientUnits="userSpaceOnUse">
<stop stop-color="#9EB644"/>
<stop offset="1" stop-color="#738611"/>
</linearGradient>
<linearGradient id="paint15_linear_289_6995" x1="25.007" y1="26.68" x2="28.9463" y2="30.6199" gradientUnits="userSpaceOnUse">
<stop stop-color="#9EB644"/>
<stop offset="1" stop-color="#738611"/>
</linearGradient>
<linearGradient id="paint16_linear_289_6995" x1="19.2817" y1="13.7173" x2="10.6625" y2="5.09808" gradientUnits="userSpaceOnUse">
<stop stop-color="#FF5D00" stop-opacity="0"/>
<stop offset="1" stop-color="#D54003"/>
</linearGradient>
<linearGradient id="paint17_linear_289_6995" x1="14.9999" y1="15.8472" x2="14.9999" y2="18.926" gradientUnits="userSpaceOnUse">
<stop stop-color="#FF5D00"/>
<stop offset="1" stop-color="#D54003"/>
</linearGradient>
<linearGradient id="paint18_linear_289_6995" x1="14.9996" y1="8.57561" x2="14.9996" y2="19.0277" gradientUnits="userSpaceOnUse">
<stop stop-color="#FF5D00"/>
<stop offset="1" stop-color="#D54003"/>
</linearGradient>
<linearGradient id="paint19_linear_289_6995" x1="23.989" y1="10.4313" x2="17.6715" y2="4.11395" gradientUnits="userSpaceOnUse">
<stop stop-color="#FF5D00" stop-opacity="0"/>
<stop offset="1" stop-color="#D54003"/>
</linearGradient>
<clipPath id="clip0_289_6995">
<rect width="30" height="30" fill="white"/>
</clipPath>
</defs>
</svg>
