<svg width="30" height="30" viewBox="0 0 30 30" fill="none" xmlns="http://www.w3.org/2000/svg">
<g clip-path="url(#clip0_289_7064)">
<path d="M6.80943 21.7413C6.80943 20.5596 6.89216 19.3906 7.05353 18.2406C7.10035 17.9069 7.45466 17.7103 7.76369 17.8447C7.82609 17.8719 7.88861 17.8988 7.95142 17.9253C8.68677 18.2363 9.43272 18.5118 10.188 18.7518C10.4359 18.8306 10.5833 19.0829 10.5338 19.3382C10.3514 20.2794 10.2579 21.2449 10.2579 22.2249C10.2579 24.8289 10.9174 27.3313 12.156 29.5427C12.2307 29.6761 12.3627 29.7689 12.5136 29.7941C12.5227 29.7956 12.5319 29.7971 12.541 29.7986C12.9618 29.8679 13.2766 29.4155 13.0679 29.0436C11.9353 27.0253 11.2885 24.6993 11.2885 22.2249C11.2885 21.3621 11.3676 20.5176 11.5181 19.6977C11.5712 19.4088 11.8528 19.2219 12.1389 19.2885C14.0556 19.7348 16.0243 19.9597 18.0273 19.9597C21.5215 19.9597 24.9115 19.2752 28.1032 17.9253C28.614 17.7093 29.1156 17.4768 29.6086 17.2297C29.763 17.1523 29.8677 17.0016 29.8885 16.8301C29.9379 16.4243 29.5155 16.1294 29.1501 16.3128C25.74 18.0233 21.9536 18.9292 18.0273 18.9292C16.121 18.9292 14.2475 18.7154 12.4339 18.3003C12.1355 18.2319 11.9647 17.9178 12.0655 17.6288C13.9708 12.1711 19.1695 8.24471 25.2687 8.24471C26.2442 8.24471 27.1965 8.34584 28.1161 8.53721C28.3081 8.57717 28.4621 8.37543 28.3731 8.20064C28.2813 8.02024 28.1859 7.84188 28.087 7.66574C28.012 7.53215 27.8796 7.43946 27.7284 7.41461C26.923 7.28237 26.1012 7.21422 25.2688 7.21422C21.2593 7.21422 17.4897 8.77557 14.6546 11.6107C12.9945 13.2709 11.7715 15.2514 11.0426 17.4129C10.9527 17.6796 10.6676 17.8276 10.3996 17.7416C9.49079 17.4499 8.60058 17.1059 7.73275 16.7108C7.50968 16.6092 7.3898 16.3646 7.4447 16.1258C8.47747 11.6322 10.7484 7.50731 14.0892 4.16647C15.4341 2.82163 16.9065 1.65099 18.4783 0.663631C18.6053 0.583885 18.5665 0.389764 18.4187 0.364569L17.5343 0.213749C17.4061 0.191893 17.2741 0.219667 17.1664 0.292616C15.8085 1.21213 14.5363 2.26195 13.3604 3.4378C10.9833 5.81489 9.11696 8.58309 7.81326 11.6656C7.29687 12.8864 6.87822 14.1364 6.55765 15.4101C6.4755 15.7368 6.10261 15.8965 5.80941 15.7306C5.39603 15.4967 4.98881 15.2505 4.58838 14.9922C4.40615 14.8747 4.31528 14.657 4.36408 14.4457C4.61955 13.3408 4.75139 12.199 4.75139 11.0369C4.75139 9.17324 4.41365 7.36153 3.76778 5.67128C3.6919 5.4727 3.42582 5.43678 3.29774 5.60641L3.02352 5.96934C2.9201 6.10622 2.89045 6.28575 2.94694 6.44776C3.44815 7.88582 3.7209 9.43006 3.7209 11.0369C3.7209 11.8203 3.65592 12.5888 3.53129 13.3374C3.46784 13.7186 3.02065 13.8952 2.71655 13.6566C2.20356 13.2542 1.38202 12.5077 0.865107 12.0297C0.653701 11.8342 0.308644 11.9474 0.255968 12.2304C0.237511 12.3299 0.219991 12.4296 0.203351 12.5297C0.175343 12.6993 0.231476 12.8726 0.356983 12.99C1.12796 13.7113 1.93702 14.3815 2.782 14.9987C2.96305 15.1309 3.03641 15.3665 2.96334 15.5785C2.47989 16.9821 1.77846 18.285 0.900263 19.4473C0.797432 19.5834 0.772002 19.7625 0.8279 19.9238C0.888369 20.0981 0.951884 20.271 1.01856 20.4424C1.07921 20.5982 1.2864 20.6309 1.3921 20.5012C2.40366 19.2605 3.20112 17.8818 3.76432 16.4107C3.87946 16.11 4.23781 15.9887 4.51233 16.157C4.9557 16.4288 5.40746 16.6873 5.86742 16.9322C6.05978 17.0346 6.16502 17.2496 6.12927 17.4645C5.89619 18.868 5.77865 20.2957 5.77865 21.7415C5.77865 23.5497 5.96222 25.33 6.32627 27.0693C6.3531 27.1976 6.42828 27.3112 6.53638 27.3852C6.71527 27.5077 6.89697 27.6263 7.0813 27.7411C7.27707 27.863 7.52122 27.6862 7.46861 27.4617C7.03414 25.6085 6.80943 23.6923 6.80943 21.7413Z" fill="url(#paint0_linear_289_7064)"/>
<path d="M7.60696 16.6537C8.56251 17.0952 9.54559 17.4746 10.5511 17.7901C10.7349 17.8478 10.9312 17.7483 10.9907 17.5651C11.7129 15.3444 12.9542 13.3097 14.6531 11.6107C17.4883 8.77551 21.2578 7.21417 25.2673 7.21417C25.994 7.21417 26.7127 7.26614 27.4194 7.36733C27.6368 7.39844 27.7892 7.15821 27.6715 6.97282C25.6885 3.84873 22.5826 1.50773 18.9212 0.518381C18.8278 0.493128 18.7276 0.507952 18.6453 0.558811C17.0102 1.56779 15.4806 2.77371 14.0878 4.16648C10.7137 7.54065 8.43079 11.7146 7.41273 16.2604C7.37687 16.4205 7.45802 16.5849 7.60696 16.6537Z" fill="url(#paint1_radial_289_7064)"/>
<path d="M12.0035 17.8062C11.938 18.0025 12.0564 18.2119 12.2578 18.2595C14.1257 18.7014 16.0581 18.9291 18.0258 18.9291C22.0256 18.9291 25.88 17.989 29.3394 16.2159C29.7389 16.0112 29.9929 15.6041 29.9979 15.1553C29.9985 15.1036 29.9988 15.0518 29.9988 15C29.9988 12.8157 29.531 10.741 28.6916 8.86918C28.6266 8.72428 28.495 8.62086 28.3401 8.586C27.351 8.36305 26.3229 8.24469 25.2674 8.24469C19.1022 8.24475 13.8571 12.2565 12.0035 17.8062Z" fill="url(#paint2_radial_289_7064)"/>
<path d="M5.99544 15.8352C6.19817 15.9475 6.45223 15.8367 6.50696 15.6115C6.83344 14.2681 7.2688 12.9507 7.81237 11.6655C9.11614 8.58297 10.9825 5.81483 13.3596 3.43769C14.4656 2.33174 15.6567 1.33734 16.9243 0.457912C17.0677 0.35842 17.0133 0.133479 16.8401 0.112268C16.2369 0.0383813 15.6226 6.10352e-05 14.9993 6.10352e-05C10.5144 6.10352e-05 6.48979 1.96887 3.74104 5.08874C3.65345 5.18817 3.63194 5.32886 3.68116 5.45185C4.38288 7.20426 4.7505 9.09227 4.7505 11.0368C4.7505 12.2352 4.61034 13.4119 4.33893 14.5489C4.30442 14.6936 4.36202 14.8453 4.48665 14.9266C4.9796 15.2481 5.48286 15.5509 5.99544 15.8352Z" fill="url(#paint3_radial_289_7064)"/>
<path d="M14.9988 30C22.3292 30 28.4304 24.7413 29.7384 17.7909C29.7916 17.5087 29.5005 17.2845 29.2419 17.4092C28.8669 17.59 28.487 17.7623 28.1017 17.9252C24.9101 19.2751 21.5201 19.9596 18.0258 19.9596C15.9659 19.9596 13.9423 19.7217 11.9741 19.2499C11.781 19.2036 11.5882 19.3291 11.5498 19.524C11.3779 20.3981 11.2871 21.3011 11.2871 22.2249C11.2871 24.7691 11.9709 27.1563 13.1635 29.2136C13.4311 29.6753 13.916 29.9699 14.4493 29.9898C14.6316 29.9965 14.8148 30 14.9988 30Z" fill="url(#paint4_radial_289_7064)"/>
<path d="M0.414687 13.0447C0.306581 12.9442 0.130097 13.0096 0.112051 13.1561C0.0377538 13.7603 -0.000976562 14.3756 -0.000976562 15C-0.000976562 16.4831 0.215058 17.9154 0.61619 19.2684C0.664999 19.4331 0.882264 19.4715 0.984393 19.3333C1.84607 18.1686 2.53173 16.866 3.00078 15.465C3.04999 15.3179 2.99902 15.1567 2.87345 15.0658C2.0164 14.4457 1.19609 13.7714 0.414687 13.0447Z" fill="url(#paint5_radial_289_7064)"/>
<path d="M10.2562 22.2249C10.2562 21.1957 10.3593 20.1824 10.5602 19.1965C10.5962 19.0203 10.4906 18.8471 10.3188 18.7935C9.51822 18.5437 8.72797 18.2544 7.94961 17.9252L7.56998 17.7645C7.35635 17.6741 7.11494 17.8099 7.08078 18.0394C6.90025 19.2542 6.80762 20.4906 6.80762 21.7413C6.80762 23.8509 7.07035 25.9198 7.57719 27.9121C7.60109 28.0059 7.66267 28.0862 7.74728 28.1331C8.98455 28.8177 10.3287 29.3325 11.7485 29.6462C11.9536 29.6915 12.1159 29.4768 12.0168 29.2916C10.867 27.1427 10.2562 24.7309 10.2562 22.2249Z" fill="url(#paint6_radial_289_7064)"/>
<path d="M5.77735 21.7413C5.77735 20.2577 5.90116 18.7929 6.14655 17.3541C6.17221 17.2037 6.09862 17.0548 5.96368 16.9836C5.41184 16.693 4.87179 16.3826 4.3438 16.0534C4.15483 15.9356 3.90692 16.0234 3.82999 16.2322C3.30435 17.6599 2.55962 19.0031 1.6138 20.2208C1.33285 20.5825 1.27097 21.0708 1.46919 21.4838C2.50712 23.6456 4.04784 25.5202 5.93995 26.956C6.08872 27.0689 6.29754 26.9402 6.26151 26.757C5.93965 25.117 5.77735 23.4415 5.77735 21.7413Z" fill="url(#paint7_radial_289_7064)"/>
<path d="M3.72137 11.0368C3.72137 9.46589 3.46075 7.95482 2.98069 6.54424C2.93071 6.39728 2.73378 6.36851 2.64495 6.49584C1.70915 7.83705 0.933663 9.5495 0.476691 11.2197C0.413352 11.4512 0.485656 11.6984 0.662902 11.8603C1.17665 12.3295 2.26684 13.3128 2.92696 13.8196C3.13526 13.9795 3.43696 13.8602 3.48506 13.6021C3.64016 12.7702 3.72137 11.9129 3.72137 11.0368Z" fill="url(#paint8_radial_289_7064)"/>
</g>
<defs>
<linearGradient id="paint0_linear_289_7064" x1="0.196323" y1="15.0064" x2="29.8918" y2="15.0064" gradientUnits="userSpaceOnUse">
<stop stop-color="#654E48"/>
<stop offset="0.445" stop-color="#5F4843"/>
<stop offset="1" stop-color="#503837"/>
</linearGradient>
<radialGradient id="paint1_radial_289_7064" cx="0" cy="0" r="1" gradientUnits="userSpaceOnUse" gradientTransform="translate(6.62049 7.11345) scale(22.7859)">
<stop stop-color="#FF931E"/>
<stop offset="0.325" stop-color="#FF901C"/>
<stop offset="0.567" stop-color="#FF8717"/>
<stop offset="0.781" stop-color="#FF770E"/>
<stop offset="0.978" stop-color="#FF6002"/>
<stop offset="1" stop-color="#FF5D00"/>
</radialGradient>
<radialGradient id="paint2_radial_289_7064" cx="0" cy="0" r="1" gradientUnits="userSpaceOnUse" gradientTransform="translate(6.62041 7.11349) scale(22.7859)">
<stop stop-color="#FF931E"/>
<stop offset="0.325" stop-color="#FF901C"/>
<stop offset="0.567" stop-color="#FF8717"/>
<stop offset="0.781" stop-color="#FF770E"/>
<stop offset="0.978" stop-color="#FF6002"/>
<stop offset="1" stop-color="#FF5D00"/>
</radialGradient>
<radialGradient id="paint3_radial_289_7064" cx="0" cy="0" r="1" gradientUnits="userSpaceOnUse" gradientTransform="translate(6.62093 7.11345) scale(22.786)">
<stop stop-color="#FF931E"/>
<stop offset="0.325" stop-color="#FF901C"/>
<stop offset="0.567" stop-color="#FF8717"/>
<stop offset="0.781" stop-color="#FF770E"/>
<stop offset="0.978" stop-color="#FF6002"/>
<stop offset="1" stop-color="#FF5D00"/>
</radialGradient>
<radialGradient id="paint4_radial_289_7064" cx="0" cy="0" r="1" gradientUnits="userSpaceOnUse" gradientTransform="translate(6.62043 7.11346) scale(22.7859)">
<stop stop-color="#FF931E"/>
<stop offset="0.325" stop-color="#FF901C"/>
<stop offset="0.567" stop-color="#FF8717"/>
<stop offset="0.781" stop-color="#FF770E"/>
<stop offset="0.978" stop-color="#FF6002"/>
<stop offset="1" stop-color="#FF5D00"/>
</radialGradient>
<radialGradient id="paint5_radial_289_7064" cx="0" cy="0" r="1" gradientUnits="userSpaceOnUse" gradientTransform="translate(6.62064 7.11343) scale(22.7859)">
<stop stop-color="#FF931E"/>
<stop offset="0.325" stop-color="#FF901C"/>
<stop offset="0.567" stop-color="#FF8717"/>
<stop offset="0.781" stop-color="#FF770E"/>
<stop offset="0.978" stop-color="#FF6002"/>
<stop offset="1" stop-color="#FF5D00"/>
</radialGradient>
<radialGradient id="paint6_radial_289_7064" cx="0" cy="0" r="1" gradientUnits="userSpaceOnUse" gradientTransform="translate(6.62006 7.11347) scale(22.7859)">
<stop stop-color="#FF931E"/>
<stop offset="0.325" stop-color="#FF901C"/>
<stop offset="0.567" stop-color="#FF8717"/>
<stop offset="0.781" stop-color="#FF770E"/>
<stop offset="0.978" stop-color="#FF6002"/>
<stop offset="1" stop-color="#FF5D00"/>
</radialGradient>
<radialGradient id="paint7_radial_289_7064" cx="0" cy="0" r="1" gradientUnits="userSpaceOnUse" gradientTransform="translate(6.62034 7.11344) scale(22.7859)">
<stop stop-color="#FF931E"/>
<stop offset="0.325" stop-color="#FF901C"/>
<stop offset="0.567" stop-color="#FF8717"/>
<stop offset="0.781" stop-color="#FF770E"/>
<stop offset="0.978" stop-color="#FF6002"/>
<stop offset="1" stop-color="#FF5D00"/>
</radialGradient>
<radialGradient id="paint8_radial_289_7064" cx="0" cy="0" r="1" gradientUnits="userSpaceOnUse" gradientTransform="translate(6.62229 7.11348) scale(22.7859)">
<stop stop-color="#FF931E"/>
<stop offset="0.325" stop-color="#FF901C"/>
<stop offset="0.567" stop-color="#FF8717"/>
<stop offset="0.781" stop-color="#FF770E"/>
<stop offset="0.978" stop-color="#FF6002"/>
<stop offset="1" stop-color="#FF5D00"/>
</radialGradient>
<clipPath id="clip0_289_7064">
<rect width="30" height="30" fill="white"/>
</clipPath>
</defs>
</svg>
