<svg width="30" height="30" viewBox="0 0 30 30" fill="none" xmlns="http://www.w3.org/2000/svg">
<path d="M25.2731 26.5689C23.9755 25.2011 21.6793 24.195 18.8954 23.7092C17.729 23.5057 16.8809 22.4875 16.8809 21.3034V19.6959H13.13V21.3036C13.13 22.4913 12.2757 23.5061 11.1057 23.7109C8.30457 24.2011 5.99821 25.2184 4.70756 26.601C4.2088 27.1353 4.23762 27.9728 4.77198 28.4716C5.30627 28.9704 6.14386 28.9416 6.64262 28.4072C7.74715 27.2239 10.7613 26.03 15.0052 26.03C19.2494 26.03 22.2637 27.2239 23.3682 28.4072C23.6289 28.6864 23.982 28.8277 24.336 28.8276C24.6661 28.8276 24.997 28.7049 25.2544 28.4569C25.7819 27.9487 25.7773 27.1003 25.2731 26.5689Z" fill="url(#paint0_linear_289_6852)"/>
<path d="M18.6535 23.6539C17.6134 23.3609 16.8804 22.4041 16.8804 21.3035V19.6959H13.1295V21.3036C13.1295 22.4059 12.3935 23.3588 11.3525 23.6539H18.6535V23.6539Z" fill="url(#paint1_linear_289_6852)"/>
<path d="M15.005 24.7061C10.5061 24.7061 6.56036 25.9392 4.70747 27.9242C4.63724 27.9994 4.57865 28.0812 4.5293 28.1666C4.59318 28.2769 4.67383 28.38 4.77189 28.4716C5.30618 28.9704 6.14377 28.9415 6.64253 28.4072C7.74706 27.2239 10.7612 26.0299 15.0051 26.0299C19.2493 26.0299 22.2636 27.2239 23.3681 28.4072C23.6288 28.6864 23.9819 28.8276 24.336 28.8276C24.6594 28.8276 24.9837 28.7097 25.2388 28.4716C25.3368 28.38 25.4175 28.277 25.4814 28.1666C25.432 28.0811 25.3734 27.9994 25.3032 27.9242C23.4502 25.9393 19.5042 24.7061 15.005 24.7061Z" fill="url(#paint2_linear_289_6852)"/>
<path d="M28.6466 21.323H1.35341C0.605941 21.323 0 20.7171 0 19.9696V2.79582C0 2.04829 0.605941 1.44235 1.35341 1.44235H28.6465C29.394 1.44235 30 2.04829 30 2.79582V19.9696C30 20.7171 29.394 21.323 28.6466 21.323Z" fill="url(#paint3_linear_289_6852)"/>
<path d="M0.865234 19.3662V3.3992C0.865234 2.9132 1.25923 2.51926 1.74523 2.51926H28.2546C28.7406 2.51926 29.1346 2.91326 29.1346 3.39926V19.3662C29.1346 19.8522 28.7406 20.2462 28.2546 20.2462H1.74523C1.25923 20.2461 0.865234 19.8522 0.865234 19.3662Z" fill="url(#paint4_linear_289_6852)"/>
<path d="M0 13.9444V19.9695C0 20.717 0.605941 21.323 1.35341 21.323H28.6465C29.394 21.323 29.9999 20.717 29.9999 19.9695V13.9444H0Z" fill="url(#paint5_linear_289_6852)"/>
<path d="M1.88281 18.4129V4.35247C1.88281 3.91252 2.23946 3.55588 2.6794 3.55588H27.3215C27.7614 3.55588 28.118 3.91252 28.118 4.35247V18.4129C28.118 18.8529 27.7614 19.2095 27.3215 19.2095H2.6794C2.23946 19.2095 1.88281 18.8529 1.88281 18.4129Z" fill="url(#paint6_linear_289_6852)"/>
<defs>
<linearGradient id="paint0_linear_289_6852" x1="15.0011" y1="20.9847" x2="15.0011" y2="26.9938" gradientUnits="userSpaceOnUse">
<stop stop-color="#5A5A5A"/>
<stop offset="1" stop-color="#444444"/>
</linearGradient>
<linearGradient id="paint1_linear_289_6852" x1="15.003" y1="23.3402" x2="15.003" y2="21.2225" gradientUnits="userSpaceOnUse">
<stop stop-color="#433F43" stop-opacity="0"/>
<stop offset="1" stop-color="#1A1A1A"/>
</linearGradient>
<linearGradient id="paint2_linear_289_6852" x1="15.0053" y1="28.3793" x2="15.0053" y2="24.3201" gradientUnits="userSpaceOnUse">
<stop stop-color="#433F43" stop-opacity="0"/>
<stop offset="1" stop-color="#1A1A1A"/>
</linearGradient>
<linearGradient id="paint3_linear_289_6852" x1="6.32188" y1="2.70459" x2="25.0001" y2="21.3828" gradientUnits="userSpaceOnUse">
<stop stop-color="#5A5A5A"/>
<stop offset="1" stop-color="#444444"/>
</linearGradient>
<linearGradient id="paint4_linear_289_6852" x1="18.9615" y1="21.355" x2="11.6069" y2="2.84155" gradientUnits="userSpaceOnUse">
<stop stop-color="#5A5A5A"/>
<stop offset="1" stop-color="#444444"/>
</linearGradient>
<linearGradient id="paint5_linear_289_6852" x1="15" y1="15.2772" x2="15" y2="21.718" gradientUnits="userSpaceOnUse">
<stop stop-color="#433F43" stop-opacity="0"/>
<stop offset="1" stop-color="#1A1A1A"/>
</linearGradient>
<linearGradient id="paint6_linear_289_6852" x1="1.87549" y1="3.75003" x2="28.1255" y2="18.75" gradientUnits="userSpaceOnUse">
<stop stop-color="#EAF6FF"/>
<stop offset="0.902404" stop-color="#B3DAFE"/>
</linearGradient>
</defs>
</svg>
