<svg width="30" height="30" viewBox="0 0 30 30" fill="none" xmlns="http://www.w3.org/2000/svg">
<g clip-path="url(#clip0_289_6918)">
<path d="M15.2987 19.2012H10.8506V17.7026C10.8506 16.4743 11.8463 15.4785 13.0746 15.4785C14.3029 15.4785 15.2987 16.4743 15.2987 17.7026V19.2012Z" fill="url(#paint0_linear_289_6918)"/>
<path d="M14.0933 15.7251C13.68 15.512 13.1954 15.512 12.7821 15.7251C12.0659 16.0945 11.5762 16.8412 11.5762 17.7026V19.2012H15.2993V17.7026C15.2993 16.8412 14.8095 16.0945 14.0933 15.7251Z" fill="url(#paint1_linear_289_6918)"/>
<path d="M13.0749 15.4785C12.92 15.4785 12.7689 15.4944 12.623 15.5245C13.6347 15.7333 14.3953 16.6291 14.3953 17.7026V19.2012H15.2989V17.7026C15.2989 16.4743 14.3032 15.4785 13.0749 15.4785Z" fill="url(#paint2_linear_289_6918)"/>
<path d="M13.0738 17.8878C13.9317 17.8878 14.6271 17.3852 14.6271 16.7652C14.6271 16.1452 13.9317 15.6426 13.0738 15.6426C12.2159 15.6426 11.5205 16.1452 11.5205 16.7652C11.5205 17.3852 12.2159 17.8878 13.0738 17.8878Z" fill="url(#paint3_linear_289_6918)"/>
<path d="M16.0232 19.6457H10.125V18.4342C10.125 18.057 10.4308 17.7511 10.8081 17.7511H15.3402C15.7174 17.7511 16.0232 18.057 16.0232 18.4342V19.6457H16.0232Z" fill="url(#paint4_linear_289_6918)"/>
<path d="M27.6765 11.3545C27.4889 11.3545 27.3014 11.2829 27.1582 11.1398C26.872 10.8535 26.872 10.3895 27.1583 10.1033L27.8985 9.36311C28.3096 8.95199 28.536 8.40528 28.536 7.82381C28.536 6.6234 27.5594 5.64681 26.3591 5.64681H16.8257C16.4209 5.64681 16.0928 5.31864 16.0928 4.91387C16.0928 4.50911 16.4209 4.18093 16.8257 4.18093H26.3591C28.3677 4.18093 30.0019 5.81511 30.0019 7.82381C30.0019 8.79687 29.623 9.71164 28.935 10.3997L28.1947 11.1399C28.0516 11.2829 27.864 11.3545 27.6765 11.3545Z" fill="url(#paint5_linear_289_6918)"/>
<path d="M28.2871 11.9497L26.1943 9.85695L26.5989 9.45236C26.811 9.2403 27.1549 9.2403 27.367 9.45236L28.6917 10.7771C28.9038 10.9892 28.9038 11.3331 28.6917 11.5452L28.2871 11.9497Z" fill="url(#paint6_linear_289_6918)"/>
<path d="M27.8169 13.3674L24.7764 10.3269L25.3641 9.73911C25.6722 9.43099 26.1718 9.43099 26.48 9.73911L28.4046 11.6638C28.7127 11.9719 28.7127 12.4715 28.4046 12.7796L27.8169 13.3674Z" fill="url(#paint7_linear_289_6918)"/>
<path d="M0.851562 26.9503L3.1428 23.0631C4.73597 20.3601 7.63962 18.7011 10.7772 18.7011H20.8603C22.2189 18.7011 23.3201 17.5998 23.3201 16.2413C23.3201 14.8828 22.2188 13.7815 20.8603 13.7815H9.15045C8.02186 13.7815 7.10703 12.8667 7.10703 11.7381C7.10703 10.6095 8.02192 9.69472 9.15045 9.69472H22.7189C26.1202 9.69472 28.8774 12.452 28.8774 15.8533V26.9505H0.851562V26.9503Z" fill="url(#paint8_linear_289_6918)"/>
<path d="M3.67809 22.2601C3.48668 22.5164 3.30739 22.7838 3.14274 23.0631L0.851562 26.9503H28.8774V22.2601H3.67809Z" fill="url(#paint9_linear_289_6918)"/>
<path d="M26.8696 23.4816H24.0356C23.6982 23.4816 23.4248 23.2082 23.4248 22.8709C23.4248 22.5335 23.6983 22.2601 24.0356 22.2601H26.8696C27.207 22.2601 27.4804 22.5336 27.4804 22.8709C27.4804 23.2082 27.207 23.4816 26.8696 23.4816Z" fill="url(#paint10_linear_289_6918)"/>
<path d="M26.8696 21.4783H24.0356C23.6982 21.4783 23.4248 21.2048 23.4248 20.8675C23.4248 20.5302 23.6983 20.2568 24.0356 20.2568H26.8696C27.207 20.2568 27.4804 20.5302 27.4804 20.8675C27.4804 21.2048 27.207 21.4783 26.8696 21.4783Z" fill="url(#paint11_linear_289_6918)"/>
<path d="M26.8696 19.4749H24.0356C23.6982 19.4749 23.4248 19.2015 23.4248 18.8642C23.4248 18.5268 23.6983 18.2534 24.0356 18.2534H26.8696C27.207 18.2534 27.4804 18.5269 27.4804 18.8642C27.4804 19.2015 27.207 19.4749 26.8696 19.4749Z" fill="url(#paint12_linear_289_6918)"/>
<path d="M7.1582 12.1943C7.36561 13.1031 8.17826 13.7814 9.14985 13.7814H20.8597C22.2183 13.7814 23.3195 14.8827 23.3195 16.2412V14.7562C23.3195 13.3413 22.1725 12.1942 20.7576 12.1942H7.1582V12.1943Z" fill="url(#paint13_linear_289_6918)"/>
<path d="M29.0511 28.6367H0.74522C0.256808 28.6367 -0.0990158 28.174 0.0262784 27.702L0.240572 26.8947C0.552984 25.718 1.61816 24.8987 2.83569 24.8987H29.0511C29.4619 24.8987 29.7949 25.2317 29.7949 25.6425V27.8928C29.795 28.3036 29.4619 28.6367 29.0511 28.6367Z" fill="url(#paint14_linear_289_6918)"/>
<path d="M0.278043 26.7677C0.26469 26.8096 0.252043 26.8518 0.240631 26.8947L0.0262784 27.7019C-0.0990158 28.174 0.256808 28.6366 0.74522 28.6366H29.0511C29.4619 28.6366 29.7949 28.3036 29.7949 27.8928V26.7676H0.278043V26.7677Z" fill="url(#paint15_linear_289_6918)"/>
</g>
<defs>
<linearGradient id="paint0_linear_289_6918" x1="13.0746" y1="16.0834" x2="13.0746" y2="20.0573" gradientUnits="userSpaceOnUse">
<stop stop-color="#FFDA2D"/>
<stop offset="1" stop-color="#FDBF00"/>
</linearGradient>
<linearGradient id="paint1_linear_289_6918" x1="13.1393" y1="17.679" x2="11.6679" y2="15.6391" gradientUnits="userSpaceOnUse">
<stop stop-color="#FF9100" stop-opacity="0"/>
<stop offset="1" stop-color="#FF9100"/>
</linearGradient>
<linearGradient id="paint2_linear_289_6918" x1="13.961" y1="15.5441" x2="13.961" y2="19.518" gradientUnits="userSpaceOnUse">
<stop stop-color="#FF9100" stop-opacity="0"/>
<stop offset="1" stop-color="#FF9100"/>
</linearGradient>
<linearGradient id="paint3_linear_289_6918" x1="13.0738" y1="16.871" x2="13.0738" y2="13.2348" gradientUnits="userSpaceOnUse">
<stop stop-color="white" stop-opacity="0"/>
<stop offset="1" stop-color="white"/>
</linearGradient>
<linearGradient id="paint4_linear_289_6918" x1="13.0741" y1="18.059" x2="13.0741" y2="20.0813" gradientUnits="userSpaceOnUse">
<stop stop-color="#FF7044"/>
<stop offset="1" stop-color="#F82814"/>
</linearGradient>
<linearGradient id="paint5_linear_289_6918" x1="25.3712" y1="1.07075" x2="23.3418" y2="5.95311" gradientUnits="userSpaceOnUse">
<stop stop-color="#2F73A0"/>
<stop offset="1" stop-color="#3A2F4D"/>
</linearGradient>
<linearGradient id="paint6_linear_289_6918" x1="28.1804" y1="9.9636" x2="27.3617" y2="10.7822" gradientUnits="userSpaceOnUse">
<stop stop-color="#2F73A0"/>
<stop offset="1" stop-color="#3A2F4D"/>
</linearGradient>
<linearGradient id="paint7_linear_289_6918" x1="27.8567" y1="10.2872" x2="26.7617" y2="11.3822" gradientUnits="userSpaceOnUse">
<stop stop-color="#2F73A0"/>
<stop offset="1" stop-color="#3A2F4D"/>
</linearGradient>
<linearGradient id="paint8_linear_289_6918" x1="13.0109" y1="15.6757" x2="17.5208" y2="28.3032" gradientUnits="userSpaceOnUse">
<stop stop-color="#FF7044"/>
<stop offset="1" stop-color="#F82814"/>
</linearGradient>
<linearGradient id="paint9_linear_289_6918" x1="14.8645" y1="22.8628" x2="14.8645" y2="26.0431" gradientUnits="userSpaceOnUse">
<stop stop-color="#843561" stop-opacity="0"/>
<stop offset="1" stop-color="#3A2F4D"/>
</linearGradient>
<linearGradient id="paint10_linear_289_6918" x1="25.4526" y1="23.5294" x2="25.4526" y2="22.4706" gradientUnits="userSpaceOnUse">
<stop stop-color="#FF7044"/>
<stop offset="1" stop-color="#F82814"/>
</linearGradient>
<linearGradient id="paint11_linear_289_6918" x1="25.4526" y1="21.3235" x2="25.4526" y2="19.9703" gradientUnits="userSpaceOnUse">
<stop stop-color="#FF7044"/>
<stop offset="1" stop-color="#F82814"/>
</linearGradient>
<linearGradient id="paint12_linear_289_6918" x1="25.4526" y1="19.3529" x2="25.4526" y2="18.0879" gradientUnits="userSpaceOnUse">
<stop stop-color="#FF7044"/>
<stop offset="1" stop-color="#F82814"/>
</linearGradient>
<linearGradient id="paint13_linear_289_6918" x1="15.291" y1="14.3364" x2="15.0956" y2="10.9648" gradientUnits="userSpaceOnUse">
<stop stop-color="#843561" stop-opacity="0"/>
<stop offset="1" stop-color="#3A2F4D"/>
</linearGradient>
<linearGradient id="paint14_linear_289_6918" x1="14.6971" y1="26.0128" x2="16.0411" y2="31.0618" gradientUnits="userSpaceOnUse">
<stop stop-color="#EDF5FF"/>
<stop offset="1" stop-color="#B5DBFF"/>
</linearGradient>
<linearGradient id="paint15_linear_289_6918" x1="14.898" y1="27.1952" x2="14.898" y2="29.9385" gradientUnits="userSpaceOnUse">
<stop stop-color="#2F73A0" stop-opacity="0"/>
<stop offset="1" stop-color="#2F73A0"/>
</linearGradient>
<clipPath id="clip0_289_6918">
<rect width="30" height="30" fill="white"/>
</clipPath>
</defs>
</svg>
