<svg width="30" height="30" viewBox="0 0 30 30" fill="none" xmlns="http://www.w3.org/2000/svg">
<g clip-path="url(#clip0_289_7053)">
<path d="M12.3538 26.7059H6.82422V21.2395C6.82422 20.8861 7.11078 20.5998 7.46394 20.5998H11.7141C12.0672 20.5998 12.3538 20.8861 12.3538 21.2395V26.7059Z" fill="url(#paint0_linear_289_7053)"/>
<path d="M20.5879 26.7059H15.0586V17.4456C15.0586 17.0922 15.3449 16.8059 15.6983 16.8059H19.9482C20.3016 16.8059 20.5879 17.0922 20.5879 17.4456V26.7059Z" fill="url(#paint1_linear_289_7053)"/>
<path d="M28.8242 26.7059H23.2949V13.0341C23.2949 12.6807 23.5813 12.3944 23.9344 12.3944H28.1845C28.5379 12.3944 28.8242 12.6807 28.8242 13.0341V26.7059Z" fill="url(#paint2_linear_289_7053)"/>
<path d="M0 27.2354C0 26.703 0.431442 26.2718 0.963593 26.2718H29.0364C29.5686 26.2718 30 26.7032 30 27.2354C30 27.7675 29.5686 28.1989 29.0364 28.1989H0.963593C0.431442 28.1989 0 27.7675 0 27.2354Z" fill="url(#paint3_linear_289_7053)"/>
<path d="M4.34473 28.1989H7.14899L5.22157 26.2715H4.34473V28.1989Z" fill="url(#paint4_linear_289_7053)"/>
<path d="M4.27707 30C3.74492 30 3.31348 29.5686 3.31348 29.0364V0.963608C3.31348 0.431458 3.74492 1.52588e-05 4.27707 1.52588e-05C4.80945 1.52588e-05 5.24066 0.431458 5.24066 0.963608V29.0364C5.24066 29.5686 4.80945 30 4.27707 30Z" fill="url(#paint5_linear_289_7053)"/>
<path d="M28.3542 1.29022L24.0803 3.61634C23.3307 4.02421 23.2994 5.08897 24.0238 5.54033L25.1398 6.23613C23.6629 8.24891 21.7805 10.0443 19.5208 11.5906C17.1345 13.2232 14.3242 14.5855 11.168 15.6391C9.83199 16.0851 8.54521 16.4376 7.36372 16.7157C6.84622 16.8375 6.48047 17.2984 6.48047 17.8301C6.48047 18.5685 7.16872 19.1149 7.88718 18.945C9.10986 18.6562 10.4422 18.2906 11.8336 17.8285C15.2018 16.7093 18.2127 15.2525 20.7828 13.4985C23.323 11.765 25.4355 9.73665 27.0865 7.44943L28.091 8.07565C28.8154 8.52723 29.7575 8.0301 29.7937 7.17752L29.9999 2.31607C30.0368 1.45043 29.115 0.87617 28.3542 1.29022Z" fill="url(#paint6_radial_289_7053)"/>
</g>
<defs>
<linearGradient id="paint0_linear_289_7053" x1="8.03461" y1="21.8837" x2="11.9168" y2="26.8246" gradientUnits="userSpaceOnUse">
<stop stop-color="#FFB5B0"/>
<stop offset="1" stop-color="#FF70AC"/>
</linearGradient>
<linearGradient id="paint1_linear_289_7053" x1="20.3424" y1="24.0195" x2="13.5486" y2="18.3727" gradientUnits="userSpaceOnUse">
<stop stop-color="#AF9CE6"/>
<stop offset="1" stop-color="#FF70AC"/>
</linearGradient>
<linearGradient id="paint2_linear_289_7053" x1="23.2617" y1="15.9611" x2="31.1142" y2="26.6371" gradientUnits="userSpaceOnUse">
<stop stop-color="#AF9CE6"/>
<stop offset="0.1591" stop-color="#AB9CE7"/>
<stop offset="0.3136" stop-color="#9F9BE8"/>
<stop offset="0.4663" stop-color="#8C9BEB"/>
<stop offset="0.6178" stop-color="#709AEF"/>
<stop offset="0.7686" stop-color="#4D99F5"/>
<stop offset="0.9167" stop-color="#2297FB"/>
<stop offset="1" stop-color="#0796FF"/>
</linearGradient>
<linearGradient id="paint3_linear_289_7053" x1="15" y1="26.5145" x2="15" y2="28.6747" gradientUnits="userSpaceOnUse">
<stop stop-color="#4F4A72"/>
<stop offset="1" stop-color="#3B395F"/>
</linearGradient>
<linearGradient id="paint4_linear_289_7053" x1="7.18355" y1="29.6356" x2="2.52477" y2="24.9769" gradientUnits="userSpaceOnUse">
<stop stop-color="#B53759" stop-opacity="0"/>
<stop offset="1" stop-color="#FFB5B0"/>
</linearGradient>
<linearGradient id="paint5_linear_289_7053" x1="3.55627" y1="15" x2="5.71646" y2="15" gradientUnits="userSpaceOnUse">
<stop stop-color="#4F4A72"/>
<stop offset="1" stop-color="#3B395F"/>
</linearGradient>
<radialGradient id="paint6_radial_289_7053" cx="0" cy="0" r="1" gradientUnits="userSpaceOnUse" gradientTransform="translate(8.86276 -3.02396) scale(28.8843)">
<stop stop-color="#00E7B2"/>
<stop offset="0.4108" stop-color="#01E5B1"/>
<stop offset="0.5587" stop-color="#04DEAE"/>
<stop offset="0.6642" stop-color="#0AD3AA"/>
<stop offset="0.7495" stop-color="#13C2A3"/>
<stop offset="0.8225" stop-color="#1EAC9A"/>
<stop offset="0.8872" stop-color="#2C908F"/>
<stop offset="0.9442" stop-color="#3B7182"/>
<stop offset="0.9964" stop-color="#4E4D73"/>
<stop offset="1" stop-color="#4F4A72"/>
</radialGradient>
<clipPath id="clip0_289_7053">
<rect width="30" height="30" fill="white"/>
</clipPath>
</defs>
</svg>
